<?xml version="1.0" encoding="UTF-8"?>
<svg id="Layer_1" xmlns="http://www.w3.org/2000/svg" xmlns:xlink="http://www.w3.org/1999/xlink" version="1.1" viewBox="0 0 734.62 281.82">
  <!-- Generator: Adobe Illustrator 29.0.1, SVG Export Plug-In . SVG Version: 2.1.0 Build 192)  -->
  <defs>
    <style>
      .st0 {
        fill: url(#linear-gradient2);
      }

      .st1 {
        fill: url(#linear-gradient1);
      }

      .st2 {
        fill: url(#linear-gradient3);
      }

      .st3 {
        fill: url(#linear-gradient6);
      }

      .st4 {
        fill: url(#linear-gradient5);
      }

      .st5 {
        fill: url(#linear-gradient4);
      }

      .st6 {
        fill: url(#linear-gradient);
      }

      .st7 {
        fill: #fff;
      }
    </style>
    <linearGradient id="linear-gradient" x1="539.7" y1="187.2" x2="556.12" y2="208.6" gradientUnits="userSpaceOnUse">
      <stop offset="0" stop-color="#e5c89e"/>
      <stop offset="1" stop-color="#af9877"/>
    </linearGradient>
    <linearGradient id="linear-gradient1" x1="573.51" y1="192.7" x2="589.64" y2="211.47" xlink:href="#linear-gradient"/>
    <linearGradient id="linear-gradient2" x1="609.43" y1="206.42" x2="645.21" y2="181.79" xlink:href="#linear-gradient"/>
    <linearGradient id="linear-gradient3" x1="646.17" y1="187.16" x2="665.82" y2="211.2" xlink:href="#linear-gradient"/>
    <linearGradient id="linear-gradient4" x1="687.6" y1="187.19" x2="687.6" y2="209.48" xlink:href="#linear-gradient"/>
    <linearGradient id="linear-gradient5" x1="730.02" y1="186.52" x2="707.15" y2="211.74" xlink:href="#linear-gradient"/>
    <linearGradient id="linear-gradient6" x1="513.3" y1="132.9" x2="604.5" y2="261.65" gradientUnits="userSpaceOnUse">
      <stop offset="0" stop-color="#e5c89e"/>
      <stop offset="1" stop-color="#af9877"/>
    </linearGradient>
  </defs>
  <g>
    <path class="st6" d="M545.49,199.18l-3.32,3.42v5.36h-3.9v-20.97h3.9v10.76l10.37-10.76h4.37l-8.81,9.38,9.35,11.59h-4.55l-7.4-8.78Z"/>
    <path class="st1" d="M575.66,186.99h3.89v17.68h10.96v3.29h-14.86v-20.97Z"/>
    <path class="st0" d="M622.91,203.1h-10.49l-2.07,4.85h-4.02l9.44-20.97h3.83l9.47,20.97h-4.08l-2.1-4.85ZM621.62,200.05l-3.95-9.17-3.92,9.17h7.88Z"/>
    <path class="st2" d="M665.94,202.27c0,3.6-2.82,5.69-8.21,5.69h-10.42v-20.97h9.83c5.03,0,7.73,2.13,7.73,5.45,0,2.16-1.08,3.74-2.7,4.61,2.25.72,3.78,2.49,3.78,5.21ZM651.2,190.04v5.78h5.51c2.7,0,4.23-.96,4.23-2.88s-1.53-2.91-4.23-2.91h-5.51ZM662.01,201.88c0-2.1-1.59-3.02-4.52-3.02h-6.29v6.05h6.29c2.94,0,4.52-.93,4.52-3.03Z"/>
    <path class="st5" d="M685.66,186.99h3.9v20.97h-3.9v-20.97Z"/>
    <path class="st4" d="M729.4,186.99v20.97h-3.2l-11.57-14.2v14.2h-3.86v-20.97h3.21l11.56,14.2v-14.2h3.86Z"/>
  </g>
  <path class="st7" d="M142.86,161.64v-62.9h-50.86v-1.83h50.86v-35.32c0-23.05-6.34-35.53-19.39-38.18-1.69-.32-3.42-.48-5.14-.48-3.44,0-6.95.64-10.43,1.9-11.7,4.3-18.12,10.93-24.71,20.23L7.65,161.64h-1.86L81.7,44.24c7.31-9.87,16.16-21.2,27.98-29.54,8.36-5.71,16-8.26,24.75-8.26,11.23.45,18.75,4.42,23.6,12.49,5.22,8.5,7.65,22.05,7.65,42.67v100.04h-22.81Z"/>
  <path class="st7" d="M233.14,222.79c-6.41,0-12.99-.14-19.36-.27-5.78-.12-11.26-.24-16.62-.26v-1.58h50.66c13.81,0,26.43-11.79,29.35-27.43,3.55-19.04-8.81-31.09-21.56-36.02-6.55-2.53-13.78-4.35-21.42-6.29-15.17-3.83-30.86-7.79-40.67-17.6-10.84-10.74-13.81-25.64-7.96-39.84,6.35-15.43,21.44-25.8,37.55-25.8h67.29v1.58h-67.29c-10.07,0-17.44,3.09-21.3,8.94-3.86,5.85-3.79,13.89.21,23.27,8.2,19.04,29.51,25.09,50.11,30.94,25.39,7.21,49.38,14.03,51.75,42.89.8,10.08-2.47,19.72-9.44,27.86-9.21,10.75-23.79,17.62-40,18.85-6.06.52-12.82.76-21.3.76Z"/>
  <path class="st7" d="M455.25,236.61c-6.97-12.08-13.73-19-22.62-23.13l-.16-.09c-1.85-1.11-4-1.98-6.76-2.74l.17-3.28c27.11-4.49,41.46-18.62,42.63-42.01.65-12.3-2.76-22.47-10.12-30.23-9.28-9.78-24.16-14.96-43.01-14.96h-71.84V25.85h57.73v-1.81h-137.94v1.81h57.51v152.76h22.69v-56.83h71.84c8.92,0,16.03,2.74,21.16,8.14,6.94,7.32,10.14,19.72,9.28,35.85-2.08,41.58-26.21,41.58-54.15,41.58h-1.89c-38.13,0-45.94,20.43-45.94,51.11v16.29h22.7v-16.29c0-20.9,0-49.53,23.28-49.53,11.03.23,17.72,1.78,25.86,9.93,10.05,10.05,21.74,31.87,30.27,47.81,1.56,2.92,3.02,5.65,4.35,8.08h25.82l-20.86-38.14Z"/>
  <path class="st3" d="M559.49,277.34c-24.38,0-44.83-8.61-59.14-24.91-12.71-14.48-19.72-34-19.72-54.95s7-40.47,19.72-54.95c14.31-16.3,34.76-24.91,59.14-24.91,43.91,0,79.64,35.83,79.64,79.86s-35.73,79.86-79.64,79.86ZM572.89,125.12c-5.43,0-10.93.75-16.32,2.22-39.83,10.73-55.45,46.15-53.25,76.49,1.95,26.94,19.66,60.24,63.15,65.41,2.48.27,4.96.41,7.38.41,10.85,0,20.89-2.63,29.82-7.81,4.49-3.16,8.03-6.17,10.95-9.29,16.12-16.01,24.4-38.25,22.66-60.97-1.76-22.94-13.46-43.88-32.11-57.45l-.16-.1c-10.36-5.9-21.17-8.89-32.13-8.89Z"/>
</svg>